PathFileType	4	(X/Y/Z)	./resultDataOpenSim/trcMotMarkerGrf/sub09/qtm-01-02.trc
DataRate	CameraRate	NumFrames	NumMarkers	Units	OrigDataRate	OrigDataStartFrame	OrigNumFrames
250.000000	250.000000	6	24	m	250.000000	62	495
Frame#	Time	L.Toe.Tip			R.Toe.Tip			L.Ankle.Lat			R.Ankle.Lat			L.Ankle.Med			R.Ankle.Med			L.Heel			R.Heel			L.Knee.Lat			R.Knee.Lat			L.Knee.Med			R.Knee.Med			L.Thigh.Upper			R.Thigh.Upper			L.ASIS			R.ASIS			V.Sacral			L.Acromium			R.Acromium			C7			L.Elbow			R.Elbow			L.Wrist.Lat			R.Wrist.Lat
		X1	Y1	Z1	X2	Y2	Z2	X3	Y3	Z3	X4	Y4	Z4	X5	Y5	Z5	X6	Y6	Z6	X7	Y7	Z7	X8	Y8	Z8	X9	Y9	Z9	X10	Y10	Z10	X11	Y11	Z11	X12	Y12	Z12	X13	Y13	Z13	X14	Y14	Z14	X15	Y15	Z15	X16	Y16	Z16	X17	Y17	Z17	X18	Y18	Z18	X19	Y19	Z19	X20	Y20	Z20	X21	Y21	Z21	X22	Y22	Z22	X23	Y23	Z23	X24	Y24	Z24

62	0.244	-1.4575234	0.081807006	-0.015642791	-0.66275402	0.040068161	0.12819548	-1.4745092	0.23990926	-0.057055777	-0.80939174	0.054344778	0.16458696	-1.4488863	0.2236159	0.036788255	-0.80397067	0.091966221	0.072875251	-1.5346478	0.28610883	-0.0071069054	-0.87830084	0.030581446	0.11709829	-1.1042033	0.42598365	-0.08440004	-0.77766191	0.50871399	0.21662046	-1.0867507	0.40914468	0.038390051	-0.79496183	0.49433629	0.0908173	-1.0410314	0.82924767	-0.089711127	-0.98852015	0.85303283	0.27793687	-0.94051393	0.9122676	-0.044112955	-0.91539146	0.93773419	0.19425333	-1.0961544	0.98009647	0.084982769	-0.92882004	1.3790616	-0.07637767	-0.94474303	1.3800361	0.25329095	-1.0033666	1.432965	0.092512908	-1.0544959	1.0261942	-0.14660438	-1.0771492	1.0407293	0.32948201	-0.84470712	0.85551525	-0.13093131	-0.96188549	0.79604566	0.35020891
63	0.248	-1.4464521	0.085129768	-0.016613903	-0.6627542	0.040050346	0.12810976	-1.4628796	0.24337243	-0.056541964	-0.80937975	0.054317835	0.16467177	-1.4374031	0.22640427	0.037243001	-0.8038589	0.09202645	0.072933633	-1.522563	0.2895733	-0.0063288988	-0.87836656	0.030592603	0.11718339	-1.0912188	0.42569459	-0.083795624	-0.77447443	0.50842362	0.21684814	-1.0737481	0.40910303	0.039256402	-0.79210397	0.4943675	0.090943555	-1.0347106	0.82993187	-0.088923979	-0.98401105	0.8543886	0.27825019	-0.93479531	0.91333379	-0.043701852	-0.91015346	0.93902803	0.19455601	-1.0907082	0.98153608	0.084925636	-0.92280168	1.3801095	-0.076119794	-0.9383314	1.3813118	0.25354785	-0.99712288	1.4345651	0.093058111	-1.0486647	1.0273579	-0.14611604	-1.070926	1.0418871	0.3303856	-0.84038058	0.85474822	-0.13099463	-0.95385499	0.79754769	0.35029443
64	0.252	-1.4347279	0.088306459	-0.017464291	-0.6627753	0.040043585	0.12803102	-1.4509866	0.24656638	-0.055975477	-0.80941632	0.054297277	0.16474832	-1.4256044	0.22890003	0.037711451	-0.80377529	0.092082703	0.073001542	-1.5099029	0.29262103	-0.0056879134	-0.87845455	0.030600471	0.1172536	-1.0781986	0.42562485	-0.083169743	-0.7713653	0.50810097	0.21711026	-1.0605771	0.40922458	0.040107445	-0.78935968	0.49432182	0.091079967	-1.0283856	0.83063219	-0.088562114	-0.97836593	0.85599092	0.2787127	-0.92915283	0.91447077	-0.043341042	-0.90467554	0.94044456	0.19480594	-1.0848285	0.98306312	0.085327464	-0.9166974	1.3812175	-0.075860512	-0.93192569	1.3826415	0.2537774	-0.99092209	1.4361172	0.093534667	-1.0430478	1.0285935	-0.14585886	-1.0647185	1.043092	0.33128775	-0.8363195	0.85406566	-0.13108849	-0.94577628	0.79913036	0.35035173
65	0.256	-1.4224157	0.091289671	-0.018180268	-0.66281908	0.040048075	0.12795582	-1.4388107	0.24949624	-0.055382535	-0.80949661	0.054285503	0.1648183	-1.4135059	0.23115503	0.038232965	-0.80372906	0.092140751	0.073070804	-1.497085	0.29532046	-0.0050469714	-0.87856331	0.030602313	0.11730165	-1.0651573	0.42575173	-0.082510826	-0.76829066	0.50780678	0.21738099	-1.0473809	0.40949411	0.040968637	-0.78674615	0.49420468	0.091257679	-1.0219377	0.83133831	-0.088707218	-0.97220402	0.85777213	0.2792085	-0.9235787	0.91568666	-0.043021648	-0.89896399	0.94195645	0.19502025	-1.078859	0.98463111	0.085830841	-0.91058791	1.3823988	-0.075611934	-0.92553856	1.3840296	0.25397923	-0.98485158	1.4375787	0.093839064	-1.0375954	1.0299016	-0.14578357	-1.0583237	1.0443159	0.33208259	-0.8324411	0.85347606	-0.13119891	-0.9376866	0.80079562	0.35038215
66	0.26	-1.409585	0.094047029	-0.018755872	-0.66288539	0.04006204	0.12787958	-1.4263631	0.25215528	-0.054779296	-0.80961691	0.05427757	0.16489007	-1.4010509	0.23331484	0.038757617	-0.8037081	0.092200956	0.073146395	-1.4845176	0.29772862	-0.0042634203	-0.87868778	0.030598308	0.11732472	-1.0521239	0.42606519	-0.081816304	-0.76527133	0.50755968	0.21765719	-1.0343274	0.40990143	0.041864832	-0.78429992	0.49402053	0.091543346	-1.0153338	0.83208142	-0.089236429	-0.96602951	0.85966619	0.27965356	-0.91804694	0.91698185	-0.042728162	-0.89316042	0.94351998	0.19520645	-1.0729368	0.98622928	0.086284526	-0.90461813	1.3836612	-0.075401385	-0.91917807	1.3854745	0.25414936	-0.97902879	1.4389508	0.093851062	-1.0320294	1.0312652	-0.14551836	-1.0516725	1.0455606	0.33274095	-0.82862904	0.8529847	-0.1313097	-0.92960272	0.80255027	0.35038326
67	0.264	-1.3962911	0.096557204	-0.019201904	-0.66297174	0.040081884	0.12780531	-1.4136575	0.25452294	-0.054170514	-0.80977196	0.054267434	0.16497174	-1.3882823	0.23547517	0.039225698	-0.8036976	0.092259473	0.073240577	-1.4722034	0.2998619	-0.0034008875	-0.87881939	0.030590774	0.11732561	-1.0391292	0.42657389	-0.081096502	-0.76238959	0.50733234	0.21795618	-1.0214115	0.41045779	0.042803996	-0.78206258	0.49377655	0.092016277	-1.0086434	0.83291489	-0.08982576	-0.96004309	0.86162799	0.28002122	-0.91253	0.91835092	-0.042450423	-0.88739278	0.945102	0.19537601	-1.0670812	0.98786831	0.086670738	-0.89885437	1.3850002	-0.075242818	-0.91284778	1.386971	0.25428893	-0.97347152	1.4402488	0.093555176	-1.0260592	1.0326696	-0.14462471	-1.0448655	1.0468563	0.33332387	-0.82482945	0.85259419	-0.13142163	-0.92151727	0.80440203	0.35034747
